<svg width="68" height="39" viewBox="0 0 68 39" fill="none" xmlns="http://www.w3.org/2000/svg" >
<path style="fill: #fff" d="M31.17 36.83C31.5415 37.2019 31.9827 37.497 32.4683 37.6983C32.9539 37.8996 33.4744 38.0032 34 38.0032C34.5257 38.0032 35.0462 37.8996 35.5318 37.6983C36.0174 37.497 36.4585 37.2019 36.83 36.83L65.83 7.83003C66.5806 7.07947 67.0023 6.06148 67.0023 5.00003C67.0023 3.93857 66.5806 2.92059 65.83 2.17003C65.0795 1.41946 64.0615 0.997803 63 0.997803C61.9386 0.997803 60.9206 1.41946 60.17 2.17003L34 28.34L7.83003 2.17003C7.45839 1.79839 7.01719 1.50358 6.53161 1.30245C6.04604 1.10132 5.52561 0.997803 5.00003 0.997803C4.47445 0.997803 3.95401 1.10132 3.46844 1.30245C2.98287 1.50358 2.54167 1.79839 2.17003 2.17003C1.79839 2.54167 1.50358 2.98287 1.30245 3.46844C1.10132 3.95401 0.997803 4.47445 0.997803 5.00003C0.997803 5.52561 1.10132 6.04604 1.30245 6.53161C1.50358 7.01718 1.79839 7.45839 2.17003 7.83003L31.17 36.83Z" fill="black"/>
</svg>
